<svg xmlns="http://www.w3.org/2000/svg" width="387" height="712" viewBox="0 0 387 712">
<path d="M 241 694 L 240 695 L 238 695 L 238 696 L 237 697 L 237 702 L 248 702 L 249 701 L 255 701 L 256 700 L 260 700 L 261 699 L 264 699 L 265 698 L 266 698 L 267 697 L 268 697 L 270 695 L 270 694 Z" fill="black" stroke="gray" stroke-width="0.5"/><path d="M 135 694 L 135 695 L 136 696 L 137 696 L 139 698 L 140 698 L 141 699 L 144 699 L 145 700 L 150 700 L 151 701 L 156 701 L 157 702 L 168 702 L 169 701 L 169 699 L 168 698 L 168 697 L 167 696 L 167 695 L 165 695 L 164 694 Z" fill="black" stroke="gray" stroke-width="0.5"/><path d="M 149 661 L 149 683 L 150 684 L 150 689 L 151 690 L 152 690 L 153 691 L 155 691 L 156 690 L 166 690 L 167 689 L 167 686 L 168 685 L 168 675 L 169 674 L 169 664 L 169 665 L 168 666 L 168 670 L 167 671 L 167 674 L 166 675 L 166 676 L 163 679 L 162 679 L 161 680 L 158 680 L 157 679 L 156 679 L 154 677 L 154 676 L 153 675 L 153 673 L 152 672 L 152 668 L 151 667 L 151 664 L 150 663 L 150 662 Z" fill="black" stroke="gray" stroke-width="0.5"/><path d="M 256 660 L 255 661 L 255 662 L 254 663 L 254 665 L 253 666 L 253 670 L 252 671 L 252 674 L 251 675 L 251 677 L 249 679 L 248 679 L 247 680 L 243 680 L 242 679 L 241 679 L 239 677 L 239 676 L 238 675 L 238 673 L 237 672 L 237 668 L 236 667 L 236 665 L 236 682 L 237 683 L 237 688 L 239 690 L 248 690 L 249 691 L 251 691 L 252 690 L 254 690 L 254 689 L 255 688 L 255 669 L 256 668 Z" fill="black" stroke="gray" stroke-width="0.5"/><path d="M 237 604 L 234 607 L 234 620 L 235 621 L 235 630 L 236 631 L 236 637 L 237 638 L 237 642 L 238 643 L 238 647 L 239 648 L 239 653 L 240 654 L 240 660 L 241 661 L 241 668 L 242 667 L 242 649 L 243 648 L 243 607 L 242 606 L 242 604 Z" fill="black" stroke="gray" stroke-width="0.5"/><path d="M 163 604 L 162 605 L 162 614 L 161 615 L 161 630 L 162 631 L 162 657 L 163 658 L 163 671 L 163 666 L 164 665 L 164 658 L 165 657 L 165 651 L 166 650 L 166 645 L 167 644 L 167 640 L 168 639 L 168 635 L 169 634 L 169 627 L 170 626 L 170 611 L 171 610 L 171 608 L 170 607 L 170 606 L 168 604 Z" fill="black" stroke="gray" stroke-width="0.5"/><path d="M 253 602 L 252 603 L 251 603 L 251 604 L 250 605 L 250 606 L 249 607 L 249 618 L 248 619 L 248 634 L 247 635 L 247 656 L 246 657 L 246 662 L 247 663 L 247 669 L 248 670 L 248 673 L 248 671 L 249 670 L 249 666 L 250 665 L 250 660 L 251 659 L 251 653 L 252 652 L 252 644 L 253 643 L 253 637 L 254 636 L 254 629 L 255 628 L 255 623 L 256 622 L 256 618 L 257 617 L 257 614 L 258 613 L 258 611 L 259 610 L 259 608 L 260 607 L 260 606 L 259 605 L 259 604 L 257 602 Z" fill="black" stroke="gray" stroke-width="0.5"/><path d="M 148 602 L 145 605 L 145 608 L 146 609 L 146 611 L 147 612 L 147 615 L 148 616 L 148 619 L 149 620 L 149 624 L 150 625 L 150 631 L 151 632 L 151 639 L 152 640 L 152 648 L 153 649 L 153 655 L 154 656 L 154 662 L 155 663 L 155 667 L 156 668 L 156 672 L 157 672 L 157 667 L 158 666 L 158 644 L 157 643 L 157 626 L 156 625 L 156 613 L 155 612 L 155 605 L 153 603 L 152 603 L 151 602 Z" fill="black" stroke="gray" stroke-width="0.5"/><path d="M 248 497 L 248 513 L 249 514 L 249 550 L 250 551 L 250 581 L 249 582 L 249 587 L 250 588 L 250 591 L 254 595 L 258 595 L 260 593 L 260 592 L 261 591 L 261 589 L 262 588 L 262 585 L 263 584 L 263 580 L 264 579 L 264 572 L 265 571 L 265 560 L 266 559 L 266 546 L 265 545 L 265 535 L 264 534 L 264 528 L 263 527 L 263 523 L 262 522 L 262 520 L 261 519 L 261 517 L 260 516 L 260 514 L 259 513 L 259 512 L 258 511 L 258 510 L 256 508 L 256 507 L 254 505 L 254 504 L 251 501 L 251 500 Z" fill="black" stroke="gray" stroke-width="0.5"/><path d="M 243 497 L 243 498 L 242 499 L 242 501 L 241 502 L 241 503 L 240 504 L 240 505 L 239 506 L 239 507 L 238 508 L 238 509 L 237 510 L 237 512 L 236 513 L 236 514 L 235 515 L 235 516 L 234 517 L 234 518 L 233 519 L 233 520 L 232 521 L 232 523 L 231 524 L 231 526 L 230 527 L 230 530 L 229 531 L 229 535 L 228 536 L 228 541 L 227 542 L 227 550 L 226 551 L 226 574 L 227 575 L 227 577 L 228 578 L 228 580 L 229 581 L 229 582 L 230 583 L 230 584 L 231 585 L 231 586 L 233 588 L 233 589 L 239 595 L 241 595 L 243 593 L 243 565 L 242 564 L 242 528 L 243 527 Z" fill="black" stroke="gray" stroke-width="0.5"/><path d="M 162 497 L 162 510 L 161 511 L 161 518 L 162 519 L 162 548 L 163 549 L 162 550 L 162 575 L 161 576 L 161 591 L 162 592 L 162 594 L 163 595 L 165 595 L 166 594 L 167 594 L 171 590 L 171 589 L 173 587 L 173 586 L 174 585 L 174 584 L 175 583 L 175 582 L 176 581 L 176 580 L 177 579 L 177 577 L 178 576 L 178 572 L 179 571 L 179 557 L 178 556 L 178 547 L 177 546 L 177 539 L 176 538 L 176 533 L 175 532 L 175 529 L 174 528 L 174 526 L 173 525 L 173 522 L 172 521 L 172 520 L 171 519 L 171 517 L 169 515 L 169 514 L 168 513 L 168 512 L 167 511 L 167 509 L 166 508 L 166 507 L 165 506 L 165 505 L 164 504 L 164 503 L 163 502 L 163 500 L 162 499 Z" fill="black" stroke="gray" stroke-width="0.5"/><path d="M 157 496 L 155 498 L 155 499 L 152 502 L 152 503 L 149 506 L 149 507 L 147 509 L 147 510 L 146 511 L 146 512 L 145 513 L 145 515 L 144 516 L 144 517 L 143 518 L 143 521 L 142 522 L 142 524 L 141 525 L 141 530 L 140 531 L 140 539 L 139 540 L 139 566 L 140 567 L 140 576 L 141 577 L 141 582 L 142 583 L 142 586 L 143 587 L 143 590 L 144 591 L 144 592 L 145 593 L 145 594 L 146 594 L 147 595 L 151 595 L 154 592 L 154 590 L 155 589 L 155 523 L 156 522 L 156 504 L 157 503 Z" fill="black" stroke="gray" stroke-width="0.5"/><path d="M 185 434 L 185 435 L 184 436 L 184 440 L 183 441 L 183 444 L 182 445 L 182 448 L 181 449 L 181 453 L 180 454 L 180 457 L 179 458 L 179 462 L 178 463 L 178 467 L 177 468 L 177 473 L 176 474 L 176 500 L 175 501 L 175 508 L 175 506 L 176 505 L 176 501 L 177 500 L 177 493 L 178 492 L 178 483 L 179 482 L 179 469 L 180 468 L 180 464 L 181 463 L 181 459 L 182 458 L 182 455 L 183 454 L 183 451 L 184 450 L 184 447 L 185 446 Z" fill="black" stroke="gray" stroke-width="0.5"/><path d="M 220 433 L 220 437 L 219 438 L 219 443 L 220 444 L 220 448 L 221 449 L 221 452 L 222 453 L 222 456 L 223 457 L 223 460 L 224 461 L 224 464 L 225 465 L 225 472 L 226 473 L 226 488 L 227 489 L 227 496 L 228 497 L 228 502 L 229 503 L 229 506 L 230 507 L 230 509 L 230 507 L 229 506 L 229 494 L 228 493 L 228 470 L 227 469 L 227 465 L 226 464 L 226 460 L 225 459 L 225 456 L 224 455 L 224 452 L 223 451 L 223 447 L 222 446 L 222 443 L 221 442 L 221 438 L 220 437 Z" fill="black" stroke="gray" stroke-width="0.5"/><path d="M 232 394 L 231 395 L 231 396 L 230 397 L 230 398 L 229 399 L 229 400 L 227 402 L 227 404 L 226 405 L 226 408 L 225 409 L 225 412 L 224 413 L 224 417 L 223 418 L 223 429 L 224 430 L 224 432 L 225 433 L 225 435 L 226 436 L 226 439 L 227 440 L 227 443 L 228 444 L 228 448 L 229 449 L 229 453 L 230 454 L 230 459 L 231 460 L 231 466 L 232 467 L 232 474 L 233 475 L 233 482 L 234 483 L 234 489 L 235 490 L 235 496 L 236 497 L 236 501 L 237 502 L 237 503 L 237 502 L 238 501 L 238 496 L 239 495 L 239 448 L 238 447 L 238 433 L 237 432 L 237 421 L 236 420 L 236 410 L 235 409 L 235 401 L 234 400 L 234 398 L 233 397 L 233 395 Z" fill="black" stroke="gray" stroke-width="0.5"/><path d="M 172 394 L 172 396 L 171 397 L 171 398 L 170 399 L 170 404 L 169 405 L 169 414 L 168 415 L 168 426 L 167 427 L 167 440 L 166 441 L 166 459 L 165 460 L 165 489 L 166 490 L 166 498 L 167 499 L 167 502 L 168 503 L 168 500 L 169 499 L 169 494 L 170 493 L 170 487 L 171 486 L 171 479 L 172 478 L 172 470 L 173 469 L 173 463 L 174 462 L 174 457 L 175 456 L 175 451 L 176 450 L 176 446 L 177 445 L 177 442 L 178 441 L 178 438 L 179 437 L 179 435 L 180 434 L 180 432 L 181 431 L 181 426 L 182 425 L 182 423 L 181 422 L 181 415 L 180 414 L 180 411 L 179 410 L 179 407 L 178 406 L 178 404 L 177 403 L 177 401 L 175 399 L 175 398 L 174 397 L 174 396 Z" fill="black" stroke="gray" stroke-width="0.5"/><path d="M 211 389 L 210 390 L 210 391 L 209 392 L 209 396 L 210 397 L 210 403 L 211 404 L 211 409 L 212 410 L 212 413 L 213 414 L 213 417 L 214 418 L 214 421 L 215 422 L 215 425 L 216 426 L 216 428 L 217 429 L 217 431 L 217 429 L 216 428 L 216 414 L 217 413 L 217 409 L 218 408 L 218 406 L 219 405 L 219 403 L 220 402 L 220 401 L 221 400 L 221 399 L 222 398 L 222 397 L 223 396 L 223 395 L 224 394 L 224 393 L 226 391 L 225 390 L 219 390 L 218 389 Z" fill="black" stroke="gray" stroke-width="0.5"/><path d="M 187 389 L 186 390 L 180 390 L 179 391 L 179 392 L 181 394 L 181 395 L 182 396 L 182 397 L 183 398 L 183 399 L 184 400 L 184 401 L 185 402 L 185 403 L 186 404 L 186 407 L 187 408 L 187 410 L 188 411 L 188 416 L 189 417 L 189 425 L 188 426 L 188 430 L 188 428 L 189 427 L 189 424 L 190 423 L 190 420 L 191 419 L 191 416 L 192 415 L 192 412 L 193 411 L 193 408 L 194 407 L 194 401 L 195 400 L 195 390 L 194 390 L 193 389 Z" fill="black" stroke="gray" stroke-width="0.5"/><path d="M 342 376 L 341 377 L 339 377 L 339 379 L 340 380 L 340 384 L 341 385 L 341 389 L 342 390 L 342 394 L 343 395 L 343 399 L 344 400 L 344 403 L 345 404 L 345 405 L 347 405 L 347 400 L 346 399 L 346 394 L 345 393 L 345 388 L 344 387 L 344 381 L 343 380 L 343 377 Z" fill="black" stroke="gray" stroke-width="0.5"/><path d="M 329 376 L 329 377 L 330 378 L 330 394 L 331 395 L 331 396 L 332 397 L 332 391 L 333 390 L 333 377 L 332 376 Z" fill="black" stroke="gray" stroke-width="0.5"/><path d="M 251 376 L 247 380 L 247 381 L 244 384 L 244 385 L 243 386 L 243 387 L 242 388 L 242 389 L 241 390 L 241 392 L 240 393 L 240 394 L 239 395 L 239 399 L 240 400 L 240 415 L 241 416 L 241 438 L 242 439 L 242 450 L 243 451 L 243 457 L 244 458 L 244 461 L 245 462 L 245 464 L 246 465 L 246 468 L 247 469 L 247 471 L 248 472 L 248 475 L 249 476 L 249 478 L 250 479 L 250 481 L 251 482 L 251 484 L 252 485 L 252 486 L 253 487 L 253 489 L 254 490 L 254 492 L 255 493 L 255 494 L 256 495 L 256 497 L 257 498 L 257 499 L 258 500 L 258 501 L 260 503 L 260 504 L 261 505 L 261 506 L 261 501 L 260 500 L 260 493 L 259 492 L 259 485 L 258 484 L 258 479 L 257 478 L 257 472 L 256 471 L 256 459 L 255 458 L 255 390 L 254 389 L 254 381 L 253 380 L 253 378 Z" fill="black" stroke="gray" stroke-width="0.5"/><path d="M 153 376 L 152 377 L 152 378 L 151 379 L 151 384 L 150 385 L 150 442 L 149 443 L 149 467 L 148 468 L 148 475 L 147 476 L 147 481 L 146 482 L 146 488 L 145 489 L 145 496 L 144 497 L 144 504 L 143 505 L 143 506 L 144 505 L 144 504 L 145 503 L 145 502 L 147 500 L 147 499 L 148 498 L 148 496 L 149 495 L 149 494 L 150 493 L 150 491 L 151 490 L 151 489 L 152 488 L 152 486 L 153 485 L 153 484 L 154 483 L 154 481 L 155 480 L 155 477 L 156 476 L 156 474 L 157 473 L 157 471 L 158 470 L 158 467 L 159 466 L 159 464 L 160 463 L 160 460 L 161 459 L 161 455 L 162 454 L 162 448 L 163 447 L 163 431 L 164 430 L 164 406 L 165 405 L 165 394 L 164 393 L 164 391 L 163 390 L 163 389 L 162 388 L 162 387 L 161 386 L 161 385 L 159 383 L 159 382 L 156 379 L 156 378 L 155 377 L 154 377 Z" fill="black" stroke="gray" stroke-width="0.5"/><path d="M 72 376 L 72 395 L 73 396 L 73 397 L 73 396 L 74 395 L 74 393 L 75 392 L 75 376 Z" fill="black" stroke="gray" stroke-width="0.5"/><path d="M 62 376 L 62 377 L 61 378 L 61 383 L 60 384 L 60 390 L 59 391 L 59 396 L 58 397 L 58 405 L 59 405 L 60 404 L 60 402 L 61 401 L 61 398 L 62 397 L 62 393 L 63 392 L 63 387 L 64 386 L 64 382 L 65 381 L 65 377 L 63 377 Z" fill="black" stroke="gray" stroke-width="0.5"/><path d="M 347 374 L 346 375 L 347 376 L 347 377 L 348 378 L 348 379 L 349 380 L 349 381 L 350 382 L 350 384 L 351 385 L 351 386 L 352 387 L 352 388 L 353 389 L 353 391 L 354 392 L 354 393 L 355 394 L 355 395 L 356 396 L 356 398 L 357 399 L 357 400 L 358 401 L 358 402 L 360 404 L 362 404 L 362 401 L 361 400 L 361 398 L 360 397 L 360 396 L 359 395 L 359 393 L 358 392 L 358 391 L 357 390 L 357 388 L 356 387 L 356 386 L 355 385 L 355 383 L 354 382 L 354 380 L 353 379 L 353 376 L 352 375 L 352 374 Z" fill="black" stroke="gray" stroke-width="0.5"/><path d="M 53 374 L 52 375 L 52 377 L 51 378 L 51 380 L 50 381 L 50 383 L 49 384 L 49 386 L 48 387 L 48 389 L 47 390 L 47 391 L 46 392 L 46 393 L 45 394 L 45 396 L 44 397 L 44 399 L 43 400 L 43 404 L 45 404 L 46 403 L 46 402 L 47 401 L 47 400 L 48 399 L 48 398 L 49 397 L 49 395 L 50 394 L 50 393 L 51 392 L 51 391 L 52 390 L 52 388 L 53 387 L 53 386 L 54 385 L 54 384 L 55 383 L 55 382 L 56 381 L 56 379 L 57 378 L 57 377 L 58 376 L 58 375 L 57 374 Z" fill="black" stroke="gray" stroke-width="0.5"/><path d="M 358 367 L 357 368 L 356 368 L 355 369 L 354 369 L 354 371 L 355 372 L 355 373 L 359 377 L 359 378 L 362 381 L 362 382 L 364 384 L 364 385 L 366 387 L 366 388 L 368 390 L 368 391 L 371 394 L 372 394 L 372 393 L 371 392 L 371 389 L 370 388 L 370 387 L 368 385 L 368 384 L 367 383 L 367 382 L 366 381 L 366 380 L 364 378 L 364 377 L 363 376 L 363 375 L 362 374 L 362 373 L 361 372 L 361 371 L 360 370 L 360 369 L 359 368 L 359 367 Z" fill="black" stroke="gray" stroke-width="0.5"/><path d="M 46 367 L 45 368 L 45 369 L 44 370 L 44 371 L 43 372 L 43 373 L 42 374 L 42 375 L 41 376 L 41 377 L 39 379 L 39 380 L 38 381 L 38 382 L 37 383 L 37 384 L 36 385 L 36 386 L 34 388 L 34 389 L 33 390 L 33 394 L 34 394 L 34 393 L 37 390 L 37 389 L 40 386 L 40 385 L 42 383 L 42 382 L 44 380 L 44 379 L 46 377 L 46 376 L 51 371 L 51 370 L 49 368 L 47 368 Z" fill="black" stroke="gray" stroke-width="0.5"/><path d="M 269 366 L 268 367 L 268 369 L 267 370 L 267 372 L 266 373 L 266 375 L 265 376 L 265 377 L 264 378 L 264 381 L 263 382 L 263 385 L 262 386 L 262 391 L 261 392 L 261 402 L 260 403 L 260 417 L 261 418 L 261 429 L 262 430 L 262 443 L 263 444 L 263 451 L 262 452 L 262 461 L 262 459 L 263 458 L 263 455 L 264 454 L 264 451 L 265 450 L 265 445 L 266 444 L 266 438 L 267 437 L 267 428 L 268 427 L 268 415 L 269 414 L 269 397 L 270 396 L 270 366 Z" fill="black" stroke="gray" stroke-width="0.5"/><path d="M 135 365 L 135 372 L 134 373 L 134 383 L 135 384 L 135 406 L 136 407 L 136 421 L 137 422 L 137 431 L 138 432 L 138 440 L 139 441 L 139 447 L 140 448 L 140 452 L 141 453 L 141 456 L 142 457 L 142 460 L 143 461 L 143 462 L 143 456 L 142 455 L 142 436 L 143 435 L 143 423 L 144 422 L 144 397 L 143 396 L 143 389 L 142 388 L 142 383 L 141 382 L 141 380 L 140 379 L 140 377 L 139 376 L 139 374 L 138 373 L 138 371 L 137 370 L 137 368 L 136 367 L 136 366 Z" fill="black" stroke="gray" stroke-width="0.5"/><path d="M 360 347 L 360 348 L 361 349 L 361 351 L 362 352 L 362 355 L 363 356 L 363 357 L 364 358 L 364 359 L 371 366 L 372 366 L 373 367 L 377 367 L 377 364 L 375 362 L 374 362 L 373 361 L 372 361 L 367 356 L 367 355 L 365 353 L 365 352 Z" fill="black" stroke="gray" stroke-width="0.5"/><path d="M 45 346 L 42 349 L 42 350 L 38 354 L 38 355 L 37 356 L 37 357 L 34 360 L 33 360 L 32 361 L 31 361 L 29 363 L 28 363 L 28 367 L 31 367 L 32 366 L 33 366 L 34 365 L 35 365 L 40 360 L 40 359 L 41 358 L 41 357 L 42 356 L 42 354 L 43 353 L 43 351 L 44 350 L 44 348 L 45 347 Z" fill="black" stroke="gray" stroke-width="0.5"/><path d="M 333 338 L 332 339 L 330 339 L 329 340 L 327 340 L 324 343 L 324 344 L 323 345 L 323 352 L 324 353 L 324 360 L 325 361 L 325 365 L 326 366 L 326 368 L 327 369 L 327 370 L 329 372 L 330 372 L 331 373 L 337 373 L 338 372 L 341 372 L 342 371 L 343 371 L 344 370 L 345 370 L 346 369 L 347 369 L 348 368 L 349 368 L 352 365 L 353 365 L 355 363 L 355 362 L 357 360 L 357 359 L 358 358 L 358 354 L 357 353 L 357 351 L 356 350 L 356 349 L 354 347 L 354 346 L 353 345 L 352 345 L 349 342 L 348 342 L 346 340 L 345 340 L 344 339 L 343 339 L 342 338 Z" fill="black" stroke="gray" stroke-width="0.5"/><path d="M 63 338 L 62 339 L 60 339 L 58 341 L 57 341 L 54 344 L 53 344 L 49 348 L 49 349 L 48 350 L 48 352 L 47 353 L 47 359 L 48 360 L 48 361 L 53 366 L 54 366 L 56 368 L 57 368 L 59 370 L 61 370 L 62 371 L 63 371 L 64 372 L 67 372 L 68 373 L 73 373 L 74 372 L 75 372 L 76 371 L 77 371 L 77 370 L 78 369 L 78 368 L 79 367 L 79 364 L 80 363 L 80 358 L 81 357 L 81 344 L 80 343 L 80 342 L 79 341 L 78 341 L 77 340 L 76 340 L 75 339 L 72 339 L 71 338 Z" fill="black" stroke="gray" stroke-width="0.5"/><path d="M 215 306 L 213 308 L 213 309 L 209 313 L 209 314 L 208 315 L 208 316 L 207 317 L 207 318 L 206 319 L 206 322 L 205 323 L 205 329 L 204 330 L 204 337 L 205 338 L 205 348 L 206 349 L 206 354 L 207 355 L 207 359 L 208 360 L 208 363 L 209 364 L 209 377 L 210 378 L 210 380 L 213 383 L 214 383 L 215 384 L 218 384 L 219 385 L 221 385 L 222 384 L 226 384 L 227 383 L 229 383 L 230 382 L 232 382 L 233 381 L 235 381 L 236 380 L 240 380 L 242 378 L 243 378 L 250 371 L 250 370 L 252 368 L 252 367 L 254 365 L 254 364 L 256 362 L 256 361 L 257 360 L 257 359 L 258 358 L 258 357 L 259 356 L 259 354 L 260 353 L 260 351 L 261 350 L 261 347 L 262 346 L 262 336 L 261 335 L 261 333 L 260 332 L 260 331 L 259 330 L 259 329 L 252 322 L 251 322 L 248 319 L 247 319 L 245 317 L 244 317 L 243 316 L 242 316 L 240 314 L 239 314 L 238 313 L 237 313 L 236 312 L 235 312 L 234 311 L 233 311 L 232 310 L 230 310 L 229 309 L 228 309 L 227 308 L 225 308 L 224 307 L 223 307 L 222 306 Z" fill="black" stroke="gray" stroke-width="0.5"/><path d="M 183 306 L 182 307 L 180 307 L 179 308 L 178 308 L 177 309 L 175 309 L 174 310 L 172 310 L 171 311 L 170 311 L 169 312 L 168 312 L 166 314 L 165 314 L 164 315 L 163 315 L 162 316 L 161 316 L 159 318 L 158 318 L 155 321 L 154 321 L 150 325 L 149 325 L 147 327 L 147 328 L 145 330 L 145 331 L 144 332 L 144 333 L 143 334 L 143 339 L 142 340 L 142 341 L 143 342 L 143 348 L 144 349 L 144 351 L 145 352 L 145 354 L 146 355 L 146 357 L 147 358 L 147 359 L 148 360 L 148 361 L 149 362 L 149 363 L 151 365 L 151 366 L 153 368 L 153 369 L 158 374 L 158 375 L 159 376 L 160 376 L 163 379 L 164 379 L 165 380 L 169 380 L 170 381 L 172 381 L 173 382 L 175 382 L 176 383 L 178 383 L 179 384 L 183 384 L 184 385 L 185 385 L 186 384 L 190 384 L 191 383 L 192 383 L 194 381 L 194 380 L 195 379 L 195 366 L 196 365 L 196 362 L 197 361 L 197 358 L 198 357 L 198 353 L 199 352 L 199 345 L 200 344 L 200 325 L 199 324 L 199 320 L 198 319 L 198 318 L 197 317 L 197 316 L 196 315 L 196 314 L 194 312 L 194 311 L 190 307 L 190 306 Z" fill="black" stroke="gray" stroke-width="0.5"/><path d="M 238 296 L 237 297 L 233 297 L 232 298 L 229 298 L 228 299 L 226 299 L 225 300 L 224 300 L 223 301 L 223 302 L 224 302 L 225 303 L 227 303 L 228 304 L 230 304 L 231 305 L 233 305 L 234 306 L 236 306 L 237 307 L 238 307 L 239 308 L 240 308 L 242 310 L 243 310 L 245 312 L 246 312 L 249 315 L 250 315 L 253 318 L 254 318 L 256 320 L 257 320 L 259 322 L 260 322 L 260 319 L 259 318 L 259 316 L 258 315 L 258 313 L 257 312 L 257 311 L 256 310 L 256 308 L 254 306 L 254 305 L 253 304 L 253 303 L 251 301 L 251 300 L 248 297 L 246 297 L 245 296 Z" fill="black" stroke="gray" stroke-width="0.5"/><path d="M 160 296 L 159 297 L 157 297 L 152 302 L 152 303 L 151 304 L 151 305 L 150 306 L 150 307 L 148 309 L 148 311 L 147 312 L 147 313 L 146 314 L 146 316 L 145 317 L 145 321 L 144 322 L 144 323 L 146 321 L 147 321 L 149 319 L 150 319 L 153 316 L 154 316 L 157 313 L 158 313 L 160 311 L 161 311 L 163 309 L 164 309 L 165 308 L 166 308 L 167 307 L 168 307 L 169 306 L 170 306 L 171 305 L 173 305 L 174 304 L 176 304 L 177 303 L 179 303 L 180 302 L 182 302 L 180 300 L 179 300 L 178 299 L 177 299 L 176 298 L 173 298 L 172 297 L 167 297 L 166 296 Z" fill="black" stroke="gray" stroke-width="0.5"/><path d="M 250 268 L 246 272 L 246 273 L 243 276 L 243 277 L 241 279 L 241 280 L 240 281 L 240 282 L 239 283 L 239 285 L 240 286 L 241 286 L 243 288 L 244 288 L 245 289 L 246 289 L 248 291 L 249 291 L 255 297 L 255 298 L 256 299 L 257 299 L 257 292 L 258 291 L 258 279 L 257 278 L 257 274 L 256 273 L 256 271 L 253 268 Z" fill="black" stroke="gray" stroke-width="0.5"/><path d="M 152 268 L 151 269 L 150 269 L 150 270 L 149 271 L 149 272 L 148 273 L 148 275 L 147 276 L 147 296 L 148 297 L 148 300 L 149 299 L 149 298 L 157 290 L 158 290 L 159 289 L 160 289 L 162 287 L 163 287 L 165 285 L 165 282 L 164 281 L 164 280 L 162 278 L 162 277 L 160 275 L 160 274 L 157 271 L 157 270 L 155 268 Z" fill="black" stroke="gray" stroke-width="0.5"/><path d="M 291 259 L 291 262 L 292 263 L 292 264 L 293 265 L 293 267 L 294 268 L 294 269 L 295 270 L 295 272 L 296 273 L 296 274 L 297 275 L 297 277 L 298 278 L 298 279 L 299 280 L 299 281 L 300 282 L 300 283 L 301 284 L 301 285 L 302 286 L 302 287 L 304 289 L 304 290 L 305 291 L 305 292 L 306 293 L 306 294 L 307 295 L 307 296 L 308 297 L 308 298 L 309 299 L 309 300 L 310 301 L 310 302 L 311 303 L 311 304 L 312 305 L 312 306 L 313 307 L 313 309 L 314 310 L 314 311 L 315 312 L 315 313 L 316 314 L 316 315 L 317 316 L 317 317 L 318 318 L 318 319 L 319 320 L 319 321 L 321 323 L 321 324 L 322 325 L 322 326 L 323 327 L 323 328 L 324 329 L 323 328 L 323 327 L 322 326 L 322 325 L 321 324 L 321 322 L 320 321 L 320 320 L 319 319 L 319 318 L 318 317 L 318 316 L 317 315 L 317 313 L 316 312 L 316 311 L 315 310 L 315 308 L 314 307 L 314 305 L 313 304 L 313 303 L 312 302 L 312 300 L 311 299 L 311 297 L 310 296 L 310 294 L 309 293 L 309 291 L 308 290 L 308 288 L 307 287 L 307 285 L 306 284 L 306 282 L 305 281 L 305 279 L 304 278 L 304 276 L 303 275 L 303 273 L 302 272 L 302 270 L 301 269 L 301 268 L 300 267 L 300 265 L 299 264 L 299 263 L 296 260 L 294 260 L 293 259 Z" fill="black" stroke="gray" stroke-width="0.5"/><path d="M 112 259 L 111 260 L 109 260 L 108 261 L 107 261 L 106 262 L 106 263 L 105 264 L 105 266 L 104 267 L 104 268 L 103 269 L 103 271 L 102 272 L 102 273 L 101 274 L 101 276 L 100 277 L 100 280 L 99 281 L 99 283 L 98 284 L 98 286 L 97 287 L 97 288 L 96 289 L 96 292 L 95 293 L 95 295 L 94 296 L 94 298 L 93 299 L 93 301 L 92 302 L 92 303 L 91 304 L 91 306 L 90 307 L 90 309 L 89 310 L 89 311 L 88 312 L 88 314 L 87 315 L 87 316 L 86 317 L 86 318 L 85 319 L 85 320 L 84 321 L 84 323 L 83 324 L 83 325 L 82 326 L 82 327 L 81 328 L 82 327 L 82 326 L 83 325 L 83 324 L 85 322 L 85 321 L 86 320 L 86 319 L 87 318 L 87 317 L 88 316 L 88 315 L 89 314 L 89 313 L 90 312 L 90 311 L 91 310 L 91 309 L 92 308 L 92 306 L 93 305 L 93 304 L 94 303 L 94 302 L 95 301 L 95 300 L 96 299 L 96 298 L 97 297 L 97 296 L 98 295 L 98 294 L 99 293 L 99 292 L 100 291 L 100 290 L 102 288 L 102 287 L 103 286 L 103 285 L 104 284 L 104 283 L 105 282 L 105 281 L 106 280 L 106 279 L 107 278 L 107 277 L 108 276 L 108 274 L 109 273 L 109 272 L 110 271 L 110 269 L 111 268 L 111 267 L 112 266 L 112 264 L 113 263 L 113 262 L 114 261 L 114 259 Z" fill="black" stroke="gray" stroke-width="0.5"/><path d="M 323 256 L 323 267 L 324 268 L 324 277 L 325 278 L 325 285 L 326 286 L 326 292 L 327 293 L 327 298 L 328 299 L 328 305 L 329 306 L 329 310 L 330 311 L 330 313 L 331 314 L 331 317 L 332 318 L 332 319 L 333 320 L 333 322 L 334 323 L 334 324 L 335 325 L 335 326 L 336 327 L 336 328 L 337 329 L 337 330 L 339 332 L 339 331 L 338 330 L 338 327 L 337 326 L 337 324 L 336 323 L 336 320 L 335 319 L 335 316 L 334 315 L 334 312 L 333 311 L 333 308 L 332 307 L 332 302 L 331 301 L 331 297 L 330 296 L 330 291 L 329 290 L 329 286 L 328 285 L 328 280 L 327 279 L 327 274 L 326 273 L 326 267 L 325 266 L 325 262 L 324 261 L 324 256 Z" fill="black" stroke="gray" stroke-width="0.5"/><path d="M 81 255 L 81 258 L 80 259 L 80 263 L 79 264 L 79 269 L 78 270 L 78 276 L 77 277 L 77 282 L 76 283 L 76 288 L 75 289 L 75 293 L 74 294 L 74 299 L 73 300 L 73 304 L 72 305 L 72 309 L 71 310 L 71 314 L 70 315 L 70 318 L 69 319 L 69 321 L 68 322 L 68 325 L 67 326 L 67 328 L 66 329 L 66 331 L 65 332 L 68 329 L 68 328 L 69 327 L 69 326 L 70 325 L 70 324 L 71 323 L 71 322 L 72 321 L 72 319 L 73 318 L 73 316 L 74 315 L 74 313 L 75 312 L 75 308 L 76 307 L 76 303 L 77 302 L 77 297 L 78 296 L 78 290 L 79 289 L 79 282 L 80 281 L 80 273 L 81 272 L 81 260 L 82 259 L 82 257 L 81 256 Z" fill="black" stroke="gray" stroke-width="0.5"/><path d="M 317 250 L 317 252 L 316 253 L 316 254 L 315 255 L 315 257 L 314 258 L 314 261 L 313 262 L 313 266 L 312 267 L 312 275 L 311 276 L 311 287 L 312 288 L 312 292 L 313 293 L 313 295 L 314 296 L 314 298 L 315 299 L 315 301 L 316 302 L 316 303 L 317 304 L 317 306 L 318 307 L 318 308 L 319 309 L 319 310 L 320 311 L 320 312 L 321 313 L 321 314 L 322 315 L 322 317 L 323 318 L 323 319 L 324 320 L 324 321 L 325 322 L 325 323 L 326 324 L 326 325 L 328 327 L 328 328 L 329 329 L 329 330 L 330 331 L 330 332 L 331 333 L 331 331 L 330 330 L 330 328 L 329 327 L 329 323 L 328 322 L 328 319 L 327 318 L 327 313 L 326 312 L 326 307 L 325 306 L 325 300 L 324 299 L 324 294 L 323 293 L 323 288 L 322 287 L 322 281 L 321 280 L 321 273 L 320 272 L 320 265 L 319 264 L 319 258 L 318 257 L 318 250 Z" fill="black" stroke="gray" stroke-width="0.5"/><path d="M 87 250 L 87 253 L 86 254 L 86 261 L 85 262 L 85 268 L 84 269 L 84 276 L 83 277 L 83 284 L 82 285 L 82 290 L 81 291 L 81 297 L 80 298 L 80 303 L 79 304 L 79 309 L 78 310 L 78 315 L 77 316 L 77 320 L 76 321 L 76 325 L 75 326 L 75 329 L 74 330 L 74 332 L 73 333 L 73 334 L 74 333 L 74 332 L 75 331 L 75 330 L 76 329 L 76 328 L 78 326 L 78 325 L 79 324 L 79 323 L 80 322 L 80 321 L 81 320 L 81 319 L 82 318 L 82 317 L 83 316 L 83 315 L 84 314 L 84 313 L 85 312 L 85 310 L 86 309 L 86 308 L 87 307 L 87 305 L 88 304 L 88 303 L 89 302 L 89 301 L 90 300 L 90 298 L 91 297 L 91 295 L 92 294 L 92 291 L 93 290 L 93 271 L 92 270 L 92 264 L 91 263 L 91 259 L 90 258 L 90 256 L 89 255 L 89 254 L 88 253 L 88 252 L 87 251 Z" fill="black" stroke="gray" stroke-width="0.5"/><path d="M 96 241 L 96 263 L 97 264 L 97 266 L 99 268 L 101 266 L 101 265 L 102 264 L 102 262 L 103 261 L 103 259 L 104 258 L 104 251 L 103 250 L 103 249 L 99 245 L 99 244 Z" fill="black" stroke="gray" stroke-width="0.5"/><path d="M 309 240 L 308 241 L 308 242 L 302 248 L 302 249 L 301 250 L 301 260 L 302 261 L 302 263 L 303 264 L 303 265 L 306 268 L 307 267 L 307 266 L 308 265 L 308 246 L 309 245 Z" fill="black" stroke="gray" stroke-width="0.5"/><path d="M 211 222 L 211 223 L 210 224 L 210 229 L 209 230 L 209 238 L 208 239 L 208 254 L 207 255 L 207 289 L 208 290 L 208 300 L 209 301 L 209 306 L 210 306 L 212 304 L 213 304 L 215 302 L 216 302 L 218 300 L 219 300 L 220 299 L 221 299 L 223 297 L 224 297 L 226 295 L 227 295 L 229 293 L 230 293 L 232 291 L 233 291 L 235 289 L 236 289 L 236 283 L 235 282 L 235 279 L 234 278 L 234 276 L 233 275 L 233 273 L 232 272 L 232 270 L 231 269 L 231 268 L 230 267 L 230 265 L 229 264 L 229 262 L 228 261 L 228 259 L 227 258 L 227 257 L 226 256 L 226 254 L 225 253 L 225 252 L 224 251 L 224 250 L 223 249 L 223 247 L 222 246 L 222 245 L 221 244 L 221 242 L 220 241 L 220 240 L 219 239 L 219 238 L 218 237 L 218 236 L 217 235 L 217 233 L 216 232 L 216 231 L 215 230 L 215 229 L 213 227 L 213 225 L 212 224 L 212 223 Z" fill="black" stroke="gray" stroke-width="0.5"/><path d="M 193 222 L 193 223 L 192 224 L 192 226 L 191 227 L 191 228 L 189 230 L 189 231 L 188 232 L 188 234 L 187 235 L 187 236 L 186 237 L 186 238 L 185 239 L 185 241 L 184 242 L 184 243 L 183 244 L 183 245 L 182 246 L 182 247 L 181 248 L 181 250 L 180 251 L 180 252 L 179 253 L 179 255 L 178 256 L 178 257 L 177 258 L 177 260 L 176 261 L 176 262 L 175 263 L 175 265 L 174 266 L 174 268 L 173 269 L 173 271 L 172 272 L 172 274 L 171 275 L 171 276 L 170 277 L 170 280 L 169 281 L 169 285 L 168 286 L 168 288 L 170 290 L 171 290 L 173 292 L 174 292 L 176 294 L 177 294 L 179 296 L 180 296 L 182 298 L 183 298 L 185 300 L 186 300 L 187 301 L 188 301 L 190 303 L 191 303 L 193 305 L 194 305 L 195 306 L 195 304 L 196 303 L 196 297 L 197 296 L 197 281 L 198 280 L 198 266 L 197 265 L 197 245 L 196 244 L 196 234 L 195 233 L 195 227 L 194 226 L 194 222 Z" fill="black" stroke="gray" stroke-width="0.5"/><path d="M 301 196 L 300 197 L 300 198 L 299 199 L 299 200 L 298 201 L 298 202 L 297 203 L 297 204 L 296 205 L 296 207 L 295 208 L 295 217 L 296 218 L 296 220 L 297 221 L 297 223 L 298 224 L 298 226 L 299 227 L 299 229 L 300 230 L 300 231 L 301 232 L 301 234 L 302 235 L 302 237 L 303 238 L 303 239 L 304 239 L 304 238 L 305 237 L 305 234 L 306 233 L 306 222 L 305 221 L 305 214 L 304 213 L 304 208 L 303 207 L 303 203 L 302 202 L 302 199 L 301 198 Z" fill="black" stroke="gray" stroke-width="0.5"/><path d="M 104 196 L 103 197 L 103 200 L 102 201 L 102 204 L 101 205 L 101 210 L 100 211 L 100 217 L 99 218 L 99 235 L 100 236 L 100 238 L 101 239 L 102 238 L 102 237 L 103 236 L 103 234 L 104 233 L 104 231 L 105 230 L 105 228 L 106 227 L 106 226 L 107 225 L 107 223 L 108 222 L 108 220 L 109 219 L 109 216 L 110 215 L 110 210 L 109 209 L 109 206 L 108 205 L 108 204 L 107 203 L 107 202 L 106 201 L 106 200 L 105 199 L 105 198 L 104 197 Z" fill="black" stroke="gray" stroke-width="0.5"/><path d="M 273 188 L 273 190 L 272 191 L 272 198 L 273 199 L 273 202 L 274 203 L 274 205 L 275 206 L 275 207 L 276 208 L 276 210 L 277 211 L 277 214 L 278 215 L 278 218 L 280 220 L 280 221 L 283 224 L 283 225 L 285 227 L 285 229 L 286 230 L 286 235 L 287 236 L 287 238 L 288 239 L 288 240 L 289 241 L 289 242 L 294 247 L 294 246 L 295 245 L 295 237 L 294 236 L 294 231 L 293 230 L 293 226 L 292 225 L 292 220 L 291 219 L 291 210 L 290 209 L 290 204 L 289 203 L 289 202 L 279 192 L 278 192 L 274 188 Z" fill="black" stroke="gray" stroke-width="0.5"/><path d="M 131 188 L 130 189 L 129 189 L 121 197 L 120 197 L 117 200 L 117 201 L 115 203 L 115 205 L 114 206 L 114 216 L 113 217 L 113 222 L 112 223 L 112 227 L 111 228 L 111 233 L 110 234 L 110 247 L 111 247 L 113 245 L 113 244 L 116 241 L 116 240 L 117 239 L 117 238 L 118 237 L 118 234 L 119 233 L 119 229 L 120 228 L 120 226 L 124 222 L 124 221 L 126 219 L 126 217 L 127 216 L 127 213 L 128 212 L 128 209 L 129 208 L 129 207 L 130 206 L 130 205 L 131 204 L 131 201 L 132 200 L 132 189 Z" fill="black" stroke="gray" stroke-width="0.5"/><path d="M 231 174 L 230 175 L 230 176 L 229 177 L 229 178 L 228 179 L 228 180 L 227 181 L 227 183 L 226 184 L 226 185 L 225 186 L 225 187 L 224 188 L 224 190 L 223 191 L 223 192 L 222 193 L 222 194 L 221 195 L 221 196 L 220 197 L 220 198 L 219 199 L 219 200 L 218 201 L 218 202 L 215 205 L 215 206 L 214 207 L 214 212 L 215 213 L 215 216 L 216 217 L 216 219 L 217 220 L 217 222 L 218 223 L 218 224 L 219 225 L 219 227 L 220 228 L 220 230 L 221 231 L 221 232 L 222 233 L 222 235 L 223 236 L 223 237 L 224 238 L 224 239 L 225 240 L 225 241 L 226 242 L 226 244 L 227 245 L 227 247 L 228 248 L 228 249 L 229 250 L 229 252 L 230 253 L 230 254 L 231 255 L 231 257 L 232 258 L 232 260 L 233 261 L 233 262 L 234 263 L 234 265 L 235 266 L 235 267 L 236 268 L 236 270 L 237 271 L 237 273 L 238 274 L 238 276 L 244 270 L 244 269 L 246 267 L 246 266 L 248 264 L 248 263 L 250 261 L 250 257 L 251 256 L 251 251 L 252 250 L 252 245 L 253 244 L 253 239 L 254 238 L 254 233 L 255 232 L 255 229 L 256 228 L 256 226 L 257 225 L 257 221 L 258 220 L 258 214 L 259 213 L 259 206 L 260 205 L 260 201 L 261 200 L 261 199 L 262 198 L 262 197 L 263 196 L 263 195 L 264 194 L 264 193 L 265 192 L 265 191 L 266 190 L 266 188 L 267 187 L 267 185 L 268 184 L 268 180 L 267 181 L 266 181 L 265 182 L 264 182 L 263 183 L 260 183 L 259 184 L 252 184 L 251 185 L 250 185 L 249 184 L 245 184 L 244 183 L 242 183 L 241 182 L 240 182 L 239 181 L 238 181 L 236 179 L 236 178 L 232 174 Z" fill="black" stroke="gray" stroke-width="0.5"/><path d="M 172 174 L 170 176 L 170 177 L 165 182 L 163 182 L 162 183 L 161 183 L 160 184 L 156 184 L 155 185 L 153 185 L 152 184 L 146 184 L 145 183 L 142 183 L 141 182 L 140 182 L 139 181 L 138 181 L 137 180 L 137 185 L 138 186 L 138 189 L 139 190 L 139 191 L 140 192 L 140 193 L 141 194 L 141 195 L 142 196 L 142 197 L 144 199 L 144 201 L 145 202 L 145 209 L 146 210 L 146 217 L 147 218 L 147 223 L 148 224 L 148 226 L 149 227 L 149 230 L 150 231 L 150 235 L 151 236 L 151 241 L 152 242 L 152 248 L 153 249 L 153 253 L 154 254 L 154 258 L 155 259 L 155 261 L 156 262 L 156 263 L 157 264 L 157 265 L 159 267 L 159 268 L 163 272 L 163 273 L 166 276 L 167 275 L 167 273 L 168 272 L 168 270 L 169 269 L 169 267 L 170 266 L 170 265 L 171 264 L 171 262 L 172 261 L 172 259 L 173 258 L 173 257 L 174 256 L 174 254 L 175 253 L 175 252 L 176 251 L 176 249 L 177 248 L 177 246 L 178 245 L 178 244 L 179 243 L 179 241 L 180 240 L 180 239 L 181 238 L 181 237 L 182 236 L 182 235 L 183 234 L 183 232 L 184 231 L 184 229 L 185 228 L 185 227 L 186 226 L 186 224 L 187 223 L 187 221 L 188 220 L 188 218 L 189 217 L 189 215 L 190 214 L 190 210 L 191 209 L 190 208 L 190 206 L 188 204 L 188 203 L 186 201 L 186 200 L 185 199 L 185 198 L 184 197 L 184 196 L 183 195 L 183 194 L 182 193 L 182 192 L 181 191 L 181 189 L 180 188 L 180 187 L 179 186 L 179 185 L 178 184 L 178 183 L 177 182 L 177 180 L 176 179 L 176 178 L 175 177 L 175 176 L 174 175 L 174 174 Z" fill="black" stroke="gray" stroke-width="0.5"/><path d="M 125 163 L 121 167 L 120 167 L 115 172 L 115 173 L 112 176 L 112 177 L 111 178 L 111 179 L 110 180 L 110 182 L 109 183 L 109 197 L 110 198 L 110 200 L 112 200 L 115 197 L 115 196 L 119 192 L 120 192 L 123 189 L 124 189 L 127 186 L 128 186 L 130 184 L 130 182 L 129 181 L 129 176 L 128 175 L 128 170 L 127 169 L 127 164 L 126 163 Z" fill="black" stroke="gray" stroke-width="0.5"/><path d="M 278 162 L 278 166 L 277 167 L 277 172 L 276 173 L 276 178 L 275 179 L 275 185 L 276 185 L 279 188 L 280 188 L 283 191 L 284 191 L 286 193 L 287 193 L 288 194 L 288 195 L 291 198 L 291 199 L 292 200 L 294 200 L 295 199 L 295 195 L 296 194 L 296 184 L 295 183 L 295 181 L 294 180 L 294 179 L 293 178 L 293 177 L 291 175 L 291 174 L 282 165 L 281 165 Z" fill="black" stroke="gray" stroke-width="0.5"/><path d="M 271 150 L 271 151 L 270 152 L 270 153 L 269 154 L 269 155 L 260 164 L 259 164 L 257 166 L 256 166 L 254 168 L 253 168 L 252 169 L 251 169 L 250 170 L 248 170 L 247 171 L 245 171 L 244 172 L 240 172 L 239 173 L 239 174 L 240 174 L 241 175 L 242 175 L 243 176 L 245 176 L 246 177 L 249 177 L 250 178 L 257 178 L 258 177 L 260 177 L 261 176 L 263 176 L 265 174 L 266 174 L 270 170 L 270 169 L 271 168 L 271 167 L 272 166 L 272 164 L 273 163 L 273 157 L 274 156 L 274 154 L 273 153 L 273 151 L 272 150 Z" fill="black" stroke="gray" stroke-width="0.5"/><path d="M 132 150 L 132 151 L 131 152 L 131 161 L 132 162 L 132 165 L 133 166 L 133 167 L 134 168 L 134 169 L 140 175 L 141 175 L 142 176 L 143 176 L 144 177 L 147 177 L 148 178 L 155 178 L 156 177 L 159 177 L 160 176 L 162 176 L 163 175 L 164 175 L 166 173 L 165 172 L 161 172 L 160 171 L 157 171 L 156 170 L 155 170 L 154 169 L 153 169 L 152 168 L 151 168 L 150 167 L 149 167 L 147 165 L 146 165 L 143 162 L 142 162 L 137 157 L 137 156 L 135 154 L 135 153 L 134 152 L 134 151 L 133 150 Z" fill="black" stroke="gray" stroke-width="0.5"/><path d="M 246 129 L 244 131 L 244 132 L 243 133 L 243 136 L 242 137 L 242 141 L 241 142 L 241 145 L 240 146 L 240 149 L 239 150 L 239 152 L 238 153 L 238 156 L 237 157 L 237 160 L 236 161 L 236 163 L 235 164 L 235 167 L 234 168 L 234 169 L 235 170 L 239 170 L 240 169 L 242 169 L 243 168 L 244 168 L 245 167 L 246 167 L 247 166 L 248 166 L 249 165 L 250 165 L 251 164 L 252 164 L 254 162 L 255 162 L 256 161 L 257 161 L 264 154 L 264 153 L 265 152 L 265 151 L 267 149 L 267 147 L 268 146 L 268 145 L 269 144 L 269 143 L 270 142 L 270 140 L 269 139 L 268 139 L 267 138 L 266 138 L 265 137 L 264 137 L 262 135 L 261 135 L 260 134 L 259 134 L 258 133 L 256 133 L 255 132 L 254 132 L 253 131 L 252 131 L 251 130 L 249 130 L 248 129 Z" fill="black" stroke="gray" stroke-width="0.5"/><path d="M 156 129 L 155 130 L 154 130 L 153 131 L 152 131 L 151 132 L 149 132 L 148 133 L 147 133 L 146 134 L 145 134 L 144 135 L 143 135 L 142 136 L 141 136 L 140 137 L 139 137 L 138 138 L 137 138 L 136 139 L 135 139 L 134 140 L 134 141 L 135 142 L 135 143 L 136 144 L 136 145 L 137 146 L 137 147 L 138 148 L 138 149 L 139 150 L 139 151 L 140 152 L 140 153 L 142 155 L 142 156 L 146 160 L 147 160 L 149 162 L 150 162 L 151 163 L 152 163 L 153 164 L 154 164 L 155 165 L 156 165 L 157 166 L 158 166 L 159 167 L 160 167 L 161 168 L 162 168 L 163 169 L 164 169 L 165 170 L 170 170 L 170 166 L 169 165 L 169 163 L 168 162 L 168 159 L 167 158 L 167 155 L 166 154 L 166 151 L 165 150 L 165 147 L 164 146 L 164 143 L 163 142 L 163 139 L 162 138 L 162 135 L 161 134 L 161 132 L 160 131 L 160 130 L 159 129 Z" fill="black" stroke="gray" stroke-width="0.5"/><path d="M 270 122 L 269 123 L 267 123 L 266 124 L 265 124 L 264 125 L 263 125 L 261 127 L 261 128 L 262 128 L 264 130 L 265 130 L 267 132 L 268 132 L 273 137 L 273 138 L 275 140 L 275 142 L 276 143 L 276 145 L 277 146 L 277 154 L 278 155 L 278 156 L 280 158 L 280 159 L 281 159 L 287 165 L 288 165 L 290 167 L 291 167 L 292 168 L 293 168 L 294 169 L 295 169 L 296 170 L 297 170 L 297 142 L 296 141 L 296 139 L 295 138 L 295 137 L 294 136 L 294 135 L 291 132 L 291 131 L 290 131 L 286 127 L 285 127 L 283 125 L 282 125 L 281 124 L 280 124 L 279 123 L 277 123 L 276 122 Z" fill="black" stroke="gray" stroke-width="0.5"/><path d="M 129 122 L 128 123 L 125 123 L 124 124 L 123 124 L 121 126 L 120 126 L 117 129 L 116 129 L 112 133 L 112 134 L 110 136 L 110 137 L 109 138 L 109 139 L 108 140 L 108 143 L 107 144 L 107 170 L 108 170 L 109 169 L 111 169 L 112 168 L 113 168 L 115 166 L 116 166 L 118 164 L 119 164 L 126 157 L 126 156 L 127 155 L 127 148 L 128 147 L 128 144 L 129 143 L 129 142 L 130 141 L 130 140 L 131 139 L 131 138 L 138 131 L 139 131 L 141 129 L 142 129 L 144 127 L 143 126 L 142 126 L 141 125 L 140 125 L 138 123 L 135 123 L 134 122 Z" fill="black" stroke="gray" stroke-width="0.5"/><path d="M 224 115 L 223 116 L 218 116 L 217 117 L 215 117 L 213 119 L 212 119 L 208 123 L 208 124 L 207 125 L 207 129 L 206 130 L 206 138 L 205 139 L 205 169 L 206 170 L 206 187 L 207 188 L 207 201 L 208 202 L 208 212 L 208 211 L 209 210 L 209 208 L 210 207 L 210 205 L 211 204 L 211 203 L 212 202 L 212 201 L 213 200 L 213 199 L 214 198 L 214 197 L 215 196 L 215 195 L 217 193 L 217 192 L 218 191 L 218 190 L 220 188 L 220 187 L 221 186 L 221 185 L 222 184 L 222 183 L 223 182 L 223 181 L 224 180 L 224 179 L 225 178 L 225 177 L 226 176 L 226 175 L 227 174 L 227 172 L 228 171 L 228 170 L 229 169 L 229 167 L 230 166 L 230 164 L 231 163 L 231 160 L 232 159 L 232 157 L 233 156 L 233 154 L 234 153 L 234 150 L 235 149 L 235 147 L 236 146 L 236 143 L 237 142 L 237 140 L 238 139 L 238 137 L 239 136 L 239 134 L 240 133 L 240 131 L 241 130 L 241 129 L 242 128 L 242 126 L 243 125 L 243 124 L 244 123 L 244 122 L 245 121 L 245 120 L 246 119 L 246 118 L 247 117 L 245 117 L 244 116 L 241 116 L 240 115 Z" fill="black" stroke="gray" stroke-width="0.5"/><path d="M 165 115 L 164 116 L 160 116 L 159 117 L 158 117 L 158 118 L 159 119 L 159 120 L 160 121 L 160 122 L 161 123 L 161 124 L 162 125 L 162 126 L 163 127 L 163 129 L 164 130 L 164 132 L 165 133 L 165 135 L 166 136 L 166 138 L 167 139 L 167 141 L 168 142 L 168 144 L 169 145 L 169 148 L 170 149 L 170 151 L 171 152 L 171 154 L 172 155 L 172 158 L 173 159 L 173 161 L 174 162 L 174 164 L 175 165 L 175 167 L 176 168 L 176 170 L 177 171 L 177 172 L 178 173 L 178 175 L 179 176 L 179 177 L 180 178 L 180 179 L 181 180 L 181 181 L 182 182 L 182 183 L 183 184 L 183 185 L 184 186 L 184 187 L 186 189 L 186 190 L 187 191 L 187 192 L 188 193 L 188 194 L 190 196 L 190 197 L 191 198 L 191 199 L 192 200 L 192 201 L 193 202 L 193 203 L 194 204 L 194 206 L 195 207 L 195 209 L 196 210 L 196 212 L 196 208 L 197 207 L 197 196 L 198 195 L 198 182 L 199 181 L 199 132 L 198 131 L 198 127 L 197 126 L 197 124 L 196 123 L 196 122 L 194 120 L 193 120 L 191 118 L 190 118 L 189 117 L 188 117 L 187 116 L 182 116 L 181 115 Z" fill="black" stroke="gray" stroke-width="0.5"/><path d="M 211 70 L 210 71 L 207 71 L 207 73 L 206 74 L 207 75 L 207 109 L 208 110 L 218 110 L 219 111 L 228 111 L 229 110 L 236 110 L 234 108 L 233 108 L 232 107 L 231 107 L 230 106 L 229 106 L 228 105 L 227 105 L 226 104 L 225 104 L 222 101 L 222 100 L 221 99 L 221 98 L 220 97 L 220 96 L 219 95 L 219 93 L 218 92 L 218 90 L 217 89 L 217 83 L 216 82 L 216 72 L 215 71 L 213 71 L 212 70 Z" fill="black" stroke="gray" stroke-width="0.5"/><path d="M 193 70 L 192 71 L 190 71 L 189 72 L 189 79 L 188 80 L 188 86 L 187 87 L 187 90 L 186 91 L 186 94 L 185 95 L 185 96 L 184 97 L 184 98 L 183 99 L 183 100 L 179 104 L 178 104 L 177 105 L 176 105 L 174 107 L 173 107 L 172 108 L 171 108 L 170 109 L 169 109 L 169 110 L 175 110 L 176 111 L 185 111 L 186 110 L 196 110 L 197 109 L 197 107 L 198 106 L 198 72 L 197 71 L 195 71 L 194 70 Z" fill="black" stroke="gray" stroke-width="0.5"/><path d="M 196 1 L 195 2 L 191 2 L 190 3 L 187 3 L 186 4 L 185 4 L 184 5 L 182 5 L 181 6 L 180 6 L 178 8 L 177 8 L 177 9 L 174 12 L 174 13 L 173 14 L 173 16 L 172 17 L 172 19 L 171 20 L 171 24 L 170 25 L 170 35 L 171 36 L 171 42 L 172 43 L 172 45 L 174 47 L 176 47 L 177 48 L 178 48 L 183 53 L 183 54 L 184 55 L 184 56 L 185 57 L 185 58 L 186 59 L 186 60 L 188 62 L 188 63 L 189 64 L 215 64 L 218 61 L 218 60 L 219 59 L 219 58 L 220 57 L 220 56 L 221 55 L 221 54 L 227 48 L 228 48 L 229 47 L 230 47 L 231 46 L 232 46 L 232 45 L 233 44 L 233 39 L 234 38 L 234 22 L 233 21 L 233 18 L 232 17 L 232 15 L 231 14 L 231 13 L 230 12 L 230 11 L 225 6 L 224 6 L 223 5 L 221 5 L 220 4 L 218 4 L 217 3 L 215 3 L 214 2 L 209 2 L 208 1 Z" fill="black" stroke="gray" stroke-width="0.5"/>
</svg>